# xmcd
#
# Track frame offsets:
#	150
#	11477
#	21628
#	29271
#	39955
#	48842
#	60690
#	72345
#	81001
#	91131
#	101453
#	112733
#	124838
#	134162
#	142825
#	153407
#
# Disc length: 2158 seconds
#
# Revision: 0
# Processed by: cddbd v1.5.2PL0 Copyright (c) Steve Scherf et al.
# Submitted via: EasyCDDAExtractor 2010.6.0.0
#
DISCID=cb086c10
DTITLE=Johnny Cash - The Collection. CD 5
DYEAR=2010
DGENRE=Gospel, R&R, Country
TTITLE0=Big River
TTITLE1=Goodbye Little Darlin'
TTITLE2=Come In Stranger
TTITLE3=I Heard That Lonesome Whistle Blow
TTITLE4=Remember Me
TTITLE5=Home Of The Blues
TTITLE6=The Ballad Of Boot Hill
TTITLE7=Katy Too
TTITLE8=There You Go
TTITLE9=You Win Again
TTITLE10=I'd Rather Die Young
TTITLE11=That's Enough
TTITLE12=Oh What A Dream
TTITLE13=He'll Be A Friend
TTITLE14=Run Softly, Blue River
TTITLE15=Drink To Me
EXTD=
EXTT0=
EXTT1=
EXTT2=
EXTT3=
EXTT4=
EXTT5=
EXTT6=
EXTT7=
EXTT8=
EXTT9=
EXTT10=
EXTT11=
EXTT12=
EXTT13=
EXTT14=
EXTT15=
PLAYORDER=
